# xmcd
# 
# Track frame offsets:
#     150
#     13730
#     30616
#     53296
#     80431
#     92953
#     113844
#     127688
#     149200
#     161803
#     168789
#     174685
#     186020
#     190586
#     195288
#     197032
#     206320
#     226777
#     253241
#     263192
#     274965
#     291192
#     299375
#     317980
# 
# Disc length: 4597
# 
# Revision: 3
# Processed by: cddbd v1.5.2PL0 Copyright (c) Steve Scherf et al.
# Submitted via: fre:ac v1.0.17
# 
DISCID=5911f318
DTITLE=菅野よう子 - マクロスＦ O.S.T.1 娘フロ。
DYEAR=2008
DGENRE=JPop
TTITLE0=菅野よう子 - Frontier 2059
TTITLE1=シェリル・ノーム starring May'n - Welcome To My FanClub's Night! (Sheryl On Stage)
TTITLE2=シェリル・ノーム starring May'n - What 'bout my star? (Sheryl On Stage)
TTITLE3=シェリル・ノーム starring May'n - 射手座☆午後九時Don't be late (Sheryl On Stage)
TTITLE4=菅野よう子 - Vital Force
TTITLE5=坂本真綾 - トライアングラー
TTITLE6=菅野よう子 - Zero Hour
TTITLE7=ランカ・リー (中島愛), シェリル・ノーム starring May'n - What 'bout my star? ＠Formo
TTITLE8=菅野よう子 - Innocent green
TTITLE9=ランカ・リー (中島愛) - アイモ
TTITLE10=菅野よう子 - ビッグ・ボーイズ
TTITLE11=菅野よう子 - Private Army
TTITLE12=SMSのみなさん - SMS小隊の歌 ～あの娘はエイリアン
TTITLE13=ランカ・リー (中島愛) - ニンジーン Loves you yeah!
TTITLE14=ランカ・リー (中島愛) - 「超時空飯店 娘々」CMソング (Ranka Version)
TTITLE15=菅野よう子 - Alto's Theme
TTITLE16=菅野よう子 - TALLY HO!
TTITLE17=菅野よう子 - The Target
TTITLE18=菅野よう子 - Bajura
TTITLE19=菅野よう子 - キラキラ
TTITLE20=ランカ・リー (中島愛) - アイモ ～鳥のひと
TTITLE21=菅野よう子 - Take Off
TTITLE22=シェリル・ノーム starring May'n - インフィニティ
TTITLE23=シェリル・ノーム starring May'n - ダイアモンド クレバス
EXTD=YEAR: 2008
EXTT0=
EXTT1=
EXTT2=
EXTT3=
EXTT4=
EXTT5=
EXTT6=
EXTT7=
EXTT8=
EXTT9=
EXTT10=
EXTT11=
EXTT12=
EXTT13=
EXTT14=
EXTT15=
EXTT16=
EXTT17=
EXTT18=
EXTT19=
EXTT20=
EXTT21=
EXTT22=
EXTT23=
PLAYORDER=
